# xmcd
#
# Track frame offsets:
#	150
#	18513
#	31721
#	50206
#	68920
#	84327
#	101893
#	125863
#	142622
#	158223
#	172407
#	185751
#	200486
#
# Disc length: 3000 seconds
#
# Revision: 0
# Processed by: cddbd v1.5.2PL0 Copyright (c) Steve Scherf et al.
# Submitted via: dBpowerAMP V4.0
#
DISCID=bd0bb60d
DTITLE=Alan jackson - drive
DYEAR=1900
DGENRE=Country
TTITLE0=drive (for daddy gene)
TTITLE1=a little bluer then that
TTITLE2=bring on the night
TTITLE3=work in progress
TTITLE4=the sounds
TTITLE5=designated drinker
TTITLE6=where were you (when the world stopped turning)
TTITLE7=that'd be alright
TTITLE8=once in a life time love
TTITLE9=when love comes around
TTITLE10=I slipped and fell in love
TTITLE11=first love
TTITLE12=where were you (when the world stopped turning) live from cma
EXTD=
EXTT0=
EXTT1=
EXTT2=
EXTT3=
EXTT4=
EXTT5=
EXTT6=
EXTT7=
EXTT8=
EXTT9=
EXTT10=
EXTT11=
EXTT12=
PLAYORDER=
